<?xml version="1.0" encoding="UTF-8"?>
<svg id="Layer_1" data-name="Layer 1" xmlns="http://www.w3.org/2000/svg" viewBox="0 0 1622.84 745.84">
  <defs>
    <style>
      .cls-1 {
        fill: #cbe9cd;
      }

      .cls-1, .cls-2, .cls-3, .cls-4 {
        stroke: #000;
        stroke-miterlimit: 10;
        stroke-width: 11.59px;
      }

      .cls-2 {
        fill: #4d835e;
      }

      .cls-3, .cls-4 {
        fill: none;
      }

      .cls-4 {
        stroke-linecap: round;
      }
    </style>
  </defs>
  <g>
    <path class="cls-2" d="M441.82,430.4l-19.25,218.79c-1.61,18.28-16.92,32.3-35.26,32.3h-237.03c-18.1,0-33.29-13.65-35.2-31.65l-23.37-219.44"/>
    <path class="cls-2" d="M48.92,346.07v60.34c0,13.25,10.74,24,24,24h388c13.25,0,24-10.74,24-24v-54.95"/>
    <path class="cls-1" d="M469.39,359.26H64.45c-15.32,0-21.35-19.85-8.63-28.38l54.96-36.83c6.1-4.09,13.29-6.27,20.63-6.27h271.02c7.35,0,14.53,2.18,20.63,6.27l54.96,36.83c12.72,8.53,6.69,28.38-8.63,28.38Z"/>
    <g>
      <path class="cls-1" d="M372.13,186.53c-40.46,34.36-72.56,28.7-92.59,5.11-20.03-23.59-20.41-56.18,20.06-90.54,25.92-22.01,80.53-38.21,104.25-36.67,9.66.63,22.31,15.53,21.37,25.16-2.32,23.66-27.15,74.92-53.08,96.93Z"/>
      <path class="cls-1" d="M160.06,186.53c40.46,34.36,72.56,28.7,92.59,5.11,20.03-23.59,20.41-56.18-20.06-90.54-25.92-22.01-80.53-38.21-104.25-36.67-9.66.63-22.31,15.53-21.37,25.16,2.32,23.66,27.15,74.92,53.08,96.93Z"/>
    </g>
  </g>
  <line class="cls-3" x1="266.55" y1="336.52" x2="266.55" y2="173.07"/>
  <path d="M407.06,336.52H126.77c-10.6,0-22.1-7.91-16.05-11.55l29.3-17.6c3.61-2.17,8.82-3.35,14.89-3.35h224c6.07,0,11.28,1.18,14.89,3.35l29.3,17.6c6.05,3.63-5.45,11.55-16.05,11.55Z"/>
  <line class="cls-4" x1="271.94" y1="180.45" x2="345.76" y2="137.58"/>
  <line class="cls-4" x1="260.3" y1="180.45" x2="186.47" y2="137.58"/>
  <g>
    <path d="M626.11,307.66h53.79c35.35,0,50.75,18.44,50.75,44.48s-15.4,44.29-50.75,44.29h-25.28v44.29h-28.51v-133.06ZM678.95,371.72c15.59,0,22.43-7.79,22.43-19.58s-6.84-19.77-22.43-19.77h-24.33v39.35h24.33Z"/>
    <path d="M735.21,414.49c0-21.86,17.87-26.61,34.97-29.08l16.73-2.47c9.12-1.33,11.97-2.85,11.97-8.36v-1.33c0-10.46-6.84-13.31-15.4-13.31s-16.92,2.85-16.92,13.12v1.9h-26.04v-4.56c0-19.39,12.93-30.41,43.72-30.41s41.82,10.64,41.82,32.12v68.62h-26.42v-17.49h-1.14c-1.9,5.32-9.88,19.39-31.55,19.39-16.16,0-31.74-7.79-31.74-28.13ZM776.46,422.85c13.12,0,22.43-8.74,22.43-16.54v-11.03c-1.52,2.28-6.27,3.04-10.64,3.8l-13.88,2.47c-8.55,1.33-11.4,5.51-11.4,10.64,0,6.08,3.99,10.64,13.5,10.64Z"/>
    <path d="M845.84,307.66h27.75v133.06h-27.75v-133.06Z"/>
    <path d="M888.61,391.3c0-35.92,24.71-51.32,49.61-51.32s49.61,15.4,49.61,51.32-24.71,51.32-49.61,51.32-49.61-15.4-49.61-51.32ZM938.22,419.62c13.31,0,23.57-8.74,23.57-28.32s-10.26-28.32-23.57-28.32-23.57,8.74-23.57,28.32,10.26,28.32,23.57,28.32Z"/>
    <path d="M1040.86,307.66h29.84l35.73,103.97h1.71l35.73-103.97h29.84l-48.09,133.06h-36.69l-48.09-133.06Z"/>
    <path d="M1166.7,391.11c0-36.87,23.38-51.13,49.61-51.13s46.95,13.31,46.95,50.75c0,3.61-.19,5.51-.57,7.6h-69.57c1.52,16.54,10.07,23.19,23.76,23.19,12.74,0,18.25-5.13,20.53-13.12h24.52c-4.94,22.62-22.43,34.21-45.43,34.21-25.09,0-49.8-13.88-49.8-51.51ZM1237.03,381.98c-.38-11.4-6.27-20.91-21.48-20.91-12.93,0-20.53,7.22-22.43,20.91h43.91Z"/>
    <path d="M1278.28,341.88h27.75v23.95h.76c3.42-14.45,12.74-25.09,28.51-25.09,2.28,0,4.75.19,7.6.95v23.38c-3.04-.38-5.32-.57-7.79-.57-14.83,0-29.08,8.55-29.08,32.5v43.72h-27.75v-98.84Z"/>
    <path d="M1348.42,391.3c0-36.3,22.62-51.32,43.34-51.32,14.64,0,25.47,7.6,29.08,16.16v-48.47h27.75v133.06h-27.75v-14.26c-3.61,8.55-14.45,16.16-29.08,16.16-20.72,0-43.34-15.02-43.34-51.32ZM1398.41,419.62c12.17,0,23.57-8.93,23.57-28.32s-11.4-28.32-23.57-28.32-23.76,8.93-23.76,28.32,11.4,28.32,23.76,28.32Z"/>
    <path d="M1463.61,391.11c0-36.87,23.38-51.13,49.61-51.13s46.95,13.31,46.95,50.75c0,3.61-.19,5.51-.57,7.6h-69.57c1.52,16.54,10.07,23.19,23.76,23.19,12.74,0,18.25-5.13,20.53-13.12h24.52c-4.94,22.62-22.43,34.21-45.43,34.21-25.09,0-49.8-13.88-49.8-51.51ZM1533.94,381.98c-.38-11.4-6.27-20.91-21.48-20.91-12.93,0-20.53,7.22-22.43,20.91h43.91Z"/>
    <path d="M626.11,535.76h53.79c35.35,0,50.75,18.44,50.75,44.48s-15.4,44.29-50.75,44.29h-25.28v44.29h-28.51v-133.05ZM678.95,599.82c15.59,0,22.43-7.79,22.43-19.58s-6.84-19.77-22.43-19.77h-24.33v39.35h24.33Z"/>
    <path d="M745.67,535.76h27.75v133.05h-27.75v-133.05Z"/>
    <path d="M788.44,642.59c0-21.86,17.87-26.61,34.97-29.08l16.73-2.47c9.12-1.33,11.97-2.85,11.97-8.36v-1.33c0-10.46-6.84-13.31-15.4-13.31s-16.92,2.85-16.92,13.12v1.9h-26.04v-4.56c0-19.39,12.93-30.41,43.72-30.41s41.82,10.64,41.82,32.12v68.62h-26.42v-17.49h-1.14c-1.9,5.32-9.88,19.39-31.55,19.39-16.16,0-31.74-7.79-31.74-28.13ZM829.68,650.95c13.12,0,22.43-8.74,22.43-16.54v-11.02c-1.52,2.28-6.27,3.04-10.64,3.8l-13.88,2.47c-8.55,1.33-11.4,5.51-11.4,10.64,0,6.08,3.99,10.64,13.5,10.64Z"/>
    <path d="M948.48,591.08c-11.59,0-20.72,6.65-20.72,21.67v56.07h-27.75v-98.84h27.75v20.72h1.14c1.71-9.31,11.21-22.62,31.55-22.62,19.2,0,34.02,12.36,34.02,38.02v62.72h-27.75v-56.07c0-15.02-6.65-21.67-18.25-21.67Z"/>
    <path d="M1022.43,639.17v-47.71h-16.73v-21.48h16.73v-25.47h27.75v25.47h19.58v21.48h-19.58v43.72c0,7.6,2.28,12.73,12.54,12.73,2.09,0,3.8,0,7.79-.38v20.72c-4.37,1.14-9.69,1.9-15.21,1.9-19.77,0-32.88-8.93-32.88-30.98Z"/>
    <path d="M1078.88,636.31h24.9c.95,9.31,7.22,13.69,18.06,13.69,9.31,0,15.59-3.23,15.59-10.27,0-4.56-3.04-7.41-9.5-8.74l-18.25-3.8c-20.72-4.75-28.13-15.78-28.13-28.89,0-19.2,16.54-30.22,40.49-30.22,26.42,0,40.3,12.93,40.68,34.21h-23.19c-1.14-9.88-7.6-13.5-17.11-13.5s-13.88,3.42-13.88,8.74c0,4.94,3.61,8.17,10.26,9.5l18.63,3.99c15.59,3.42,28.51,10.64,28.51,28.13,0,22.05-20.34,31.55-44.29,31.55-26.42,0-42.58-11.59-42.77-34.4Z"/>
  </g>
</svg>